<svg xmlns="http://www.w3.org/2000/svg" xmlns:xlink="http://www.w3.org/1999/xlink" xmlns:serif="http://www.serif.com/" width="100%" height="100%" viewBox="0 0 101 20" xml:space="preserve" style="fill-rule:evenodd;clip-rule:evenodd;stroke-linejoin:round;stroke-miterlimit:2;">    <g transform="matrix(1,0,0,1,-6213,-1730)">        <g id="AVAX_logo" transform="matrix(0.460245,0,0,0.384078,7204.89,2350.11)">            <g transform="matrix(1.19198,0,-4.93038e-32,1.42837,-7369.92,-3399)">                <path d="M4392.78,1251.09C4402.32,1251.09 4410.06,1258.83 4410.06,1268.36C4410.06,1277.89 4402.32,1285.63 4392.78,1285.63C4383.25,1285.63 4375.51,1277.89 4375.51,1268.36C4375.51,1258.83 4383.25,1251.09 4392.78,1251.09ZM4398.77,1268.7C4399.37,1267.67 4400.33,1267.67 4400.93,1268.7L4404.66,1275.25C4405.26,1276.28 4404.77,1277.12 4403.57,1277.12L4396.06,1277.12C4394.88,1277.12 4394.39,1276.28 4394.98,1275.25L4398.77,1268.7ZM4391.56,1256.11C4392.16,1255.08 4393.11,1255.08 4393.71,1256.11L4394.54,1257.61L4396.5,1261.05C4396.97,1262.03 4396.97,1263.18 4396.5,1264.16L4389.93,1275.55C4389.33,1276.47 4388.34,1277.06 4387.24,1277.12L4381.78,1277.12C4380.59,1277.12 4380.1,1276.29 4380.69,1275.25L4391.56,1256.11Z" style="fill:rgb(115,119,126);"></path>            </g>            <g transform="matrix(2.1704,0,0,2.60082,-12190.6,-4763.77)">                <path d="M4650.35,1217.62L4651.48,1217.62L4654.63,1225.05L4653.14,1225.05L4652.46,1223.35L4649.28,1223.35L4648.62,1225.05L4647.16,1225.05L4650.35,1217.62ZM4652,1222.21L4650.88,1219.19L4649.73,1222.21L4652,1222.21Z" style="fill:rgb(115,119,126);fill-rule:nonzero;"></path>                <path d="M4655.99,1217.62L4657.45,1217.62L4659.46,1223.34L4659.51,1223.34L4661.54,1217.62L4662.95,1217.62L4660.01,1225.05L4658.89,1225.05L4655.99,1217.62Z" style="fill:rgb(115,119,126);fill-rule:nonzero;"></path>                <path d="M4667.49,1217.62L4668.62,1217.62L4671.78,1225.05L4670.29,1225.05L4669.6,1223.35L4666.43,1223.35L4665.77,1225.05L4664.31,1225.05L4667.49,1217.62ZM4669.15,1222.21L4668.02,1219.19L4666.87,1222.21L4669.15,1222.21Z" style="fill:rgb(115,119,126);fill-rule:nonzero;"></path>                <path d="M4674.36,1217.62L4675.66,1217.62L4675.66,1223.87L4678.78,1223.87L4678.78,1225.05L4674.36,1225.05L4674.36,1217.62Z" style="fill:rgb(115,119,126);fill-rule:nonzero;"></path>                <path d="M4683.8,1217.62L4684.93,1217.62L4688.08,1225.05L4686.59,1225.05L4685.91,1223.35L4682.74,1223.35L4682.07,1225.05L4680.62,1225.05L4683.8,1217.62ZM4685.46,1222.21L4684.33,1219.19L4683.18,1222.21L4685.46,1222.21Z" style="fill:rgb(115,119,126);fill-rule:nonzero;"></path>                <path d="M4690.67,1217.62L4692.4,1217.62L4695.8,1223.18L4695.82,1223.18L4695.82,1217.62L4697.12,1217.62L4697.12,1225.05L4695.47,1225.05L4691.99,1219.31L4691.97,1219.31L4691.97,1225.05L4690.67,1225.05L4690.67,1217.62Z" style="fill:rgb(115,119,126);fill-rule:nonzero;"></path>                <path d="M4705.88,1219.36C4705.69,1219.09 4705.44,1218.9 4705.13,1218.78C4704.82,1218.65 4704.51,1218.59 4704.22,1218.59C4703.84,1218.59 4703.49,1218.66 4703.18,1218.8C4702.87,1218.94 4702.6,1219.13 4702.38,1219.38C4702.16,1219.62 4701.98,1219.91 4701.86,1220.24C4701.74,1220.57 4701.68,1220.93 4701.68,1221.31C4701.68,1221.72 4701.74,1222.09 4701.86,1222.42C4701.98,1222.76 4702.14,1223.05 4702.36,1223.29C4702.58,1223.53 4702.84,1223.72 4703.14,1223.85C4703.44,1223.99 4703.78,1224.05 4704.16,1224.05C4704.56,1224.05 4704.9,1223.97 4705.21,1223.82C4705.51,1223.66 4705.76,1223.45 4705.94,1223.19L4706.99,1223.94C4706.66,1224.35 4706.27,1224.67 4705.8,1224.9C4705.33,1225.12 4704.78,1225.24 4704.15,1225.24C4703.58,1225.24 4703.06,1225.14 4702.58,1224.95C4702.1,1224.76 4701.69,1224.49 4701.34,1224.14C4701,1223.79 4700.73,1223.38 4700.53,1222.9C4700.34,1222.42 4700.24,1221.89 4700.24,1221.31C4700.24,1220.72 4700.35,1220.18 4700.55,1219.7C4700.75,1219.22 4701.03,1218.81 4701.39,1218.48C4701.74,1218.14 4702.16,1217.88 4702.64,1217.7C4703.13,1217.52 4703.65,1217.43 4704.22,1217.43C4704.45,1217.43 4704.69,1217.45 4704.95,1217.49C4705.2,1217.54 4705.45,1217.61 4705.68,1217.7C4705.92,1217.8 4706.14,1217.92 4706.35,1218.06C4706.55,1218.2 4706.73,1218.36 4706.87,1218.56L4705.88,1219.36Z" style="fill:rgb(115,119,126);fill-rule:nonzero;"></path>                <path d="M4709.65,1217.62L4710.96,1217.62L4710.96,1220.62L4714.38,1220.62L4714.38,1217.62L4715.68,1217.62L4715.68,1225.05L4714.38,1225.05L4714.38,1221.75L4710.96,1221.75L4710.96,1225.05L4709.65,1225.05L4709.65,1217.62Z" style="fill:rgb(115,119,126);fill-rule:nonzero;"></path>                <path d="M4719.16,1217.62L4724.01,1217.62L4724.01,1218.77L4720.46,1218.77L4720.46,1220.66L4723.82,1220.66L4723.82,1221.77L4720.46,1221.77L4720.46,1223.87L4724.19,1223.87L4724.19,1225.05L4719.16,1225.05L4719.16,1217.62Z" style="fill:rgb(115,119,126);fill-rule:nonzero;"></path>            </g>        </g>    </g></svg>