<?xml version="1.0" encoding="UTF-8" standalone="no"?>
<!DOCTYPE svg PUBLIC "-//W3C//DTD SVG 1.1//EN" "http://www.w3.org/Graphics/SVG/1.1/DTD/svg11.dtd">
<svg width="100%" height="100%" viewBox="0 0 554 258" version="1.1" xmlns="http://www.w3.org/2000/svg" xmlns:xlink="http://www.w3.org/1999/xlink" xml:space="preserve" xmlns:serif="http://www.serif.com/" style="fill-rule:evenodd;clip-rule:evenodd;stroke-linecap:round;stroke-linejoin:round;stroke-miterlimit:1.5;">
    <g transform="matrix(1,0,0,1,2988,-459)">
        <g>
            <g transform="matrix(0.0476848,2.27358e-33,-2.27358e-33,-0.0476848,-2987.64,716.934)">
                <path d="M1705,5393C1482,5372 1329,5305 1148,5148C1036,5051 905,4871 815,4690C766,4592 675,4365 660,4303C651,4266 636,4250 552,4181C335,4004 230,3813 230,3598C230,3526 228,3518 200,3486C153,3433 140,3391 140,3295C140,3247 135,3200 130,3190C124,3180 97,3159 69,3143C15,3114 0,3090 0,3035C0,2991 15,2951 44,2920C59,2904 70,2877 74,2846C83,2776 125,2705 208,2622L282,2548L278,2497C275,2468 261,2405 246,2355C214,2250 195,2075 205,1975C208,1937 220,1860 231,1805C256,1672 255,1634 224,1574C210,1547 197,1503 194,1475C187,1409 218,1348 280,1303C378,1233 378,1232 390,1172C423,1005 462,915 544,821C642,709 772,627 929,580C999,560 1009,552 1112,454C1260,312 1354,268 1666,190C1860,143 2034,83 2091,44C2119,25 2145,11 2147,14C2150,16 2160,60 2170,112C2190,214 2220,317 2253,395C2280,459 2344,556 2366,564C2384,571 2384,569 2356,463C2344,420 2340,371 2342,299L2345,196L2390,265C2454,363 2595,500 2830,693C3165,968 3179,980 3305,1106C3582,1383 3695,1623 3693,1930C3693,2103 3653,2270 3566,2468L3533,2545L3543,2670C3584,3199 3354,3835 2990,4200C2932,4258 2852,4327 2813,4354C2773,4381 2740,4408 2740,4414C2740,4420 2733,4471 2725,4528C2688,4788 2561,5018 2362,5184C2237,5288 2122,5346 1983,5374C1907,5389 1767,5399 1705,5393Z"/>
                <path d="M2006,3424C2016,3386 1992,3237 1965,3157C1922,3034 1838,2915 1736,2830C1692,2795 1674,2774 1682,2769C1689,2766 1722,2760 1755,2757C1788,2754 1847,2742 1885,2729L1955,2707L1860,2690C1808,2680 1747,2665 1725,2656L1685,2639L1755,2605C1842,2563 1934,2488 2000,2407C2047,2349 2120,2218 2136,2160C2142,2137 2139,2138 2100,2174C2055,2214 1977,2254 1923,2264C1885,2270 1882,2263 1910,2227C1935,2196 1996,2066 2006,2026L2013,1997L1974,2027C1953,2044 1920,2063 1901,2069C1863,2081 1750,2084 1751,2073C1751,2068 1772,2052 1798,2035C1861,1994 1907,1931 1916,1874C1928,1792 1886,1707 1820,1680C1784,1665 1782,1655 1813,1646C1887,1626 1981,1655 2021,1710C2045,1741 2045,1741 2051,1718C2063,1676 2060,1526 2046,1473C2002,1309 1876,1171 1714,1111C1538,1045 1287,1068 1125,1166C1093,1185 1066,1200 1063,1200C1057,1200 1070,1082 1080,1043C1086,1020 1085,1010 1077,1010C1058,1010 968,1065 896,1119C858,1148 828,1165 824,1159C804,1126 856,865 904,755L929,699L907,705C829,727 732,787 660,859C572,947 535,1015 512,1133C498,1205 498,1221 513,1323C522,1384 528,1436 525,1438C523,1440 496,1428 466,1411C398,1373 358,1371 325,1405C295,1434 294,1459 319,1508C393,1651 665,1811 945,1874C1135,1917 1483,1928 1727,1898C1788,1890 1836,1888 1834,1892C1822,1911 1704,1962 1621,1984C1453,2029 1246,2039 1004,2014C946,2008 942,2009 907,2040C848,2092 835,2150 835,2363C836,2556 833,2561 788,2460C740,2351 729,2217 756,2061C775,1950 778,1955 666,1911C623,1893 545,1854 493,1824C345,1737 332,1750 323,2003C317,2175 328,2265 372,2389C413,2506 443,2550 479,2550C495,2550 515,2541 526,2529C575,2475 668,2462 717,2504L744,2528L701,2535C635,2546 599,2584 592,2648C583,2744 627,2800 710,2800C777,2800 816,2784 830,2750C836,2734 849,2715 858,2706C874,2693 875,2696 872,2753C865,2896 980,2993 1098,2944C1155,2920 1180,2877 1180,2799C1180,2726 1148,2663 1097,2635C1051,2610 1050,2600 1093,2600C1175,2601 1258,2672 1285,2764C1306,2837 1324,2850 1412,2860C1718,2895 1825,2993 1851,3260C1858,3341 1863,3357 1881,3370C1893,3378 1917,3400 1934,3417C1972,3457 1997,3459 2006,3424Z" style="fill:rgb(255,177,50);"/>
                <path d="M3409,2629C3410,2610 3403,2572 3394,2546L3378,2498L3408,2467C3442,2430 3480,2360 3480,2332C3480,2317 3469,2324 3431,2361C3368,2425 3346,2426 3355,2366C3359,2342 3359,2308 3355,2290C3348,2259 3348,2259 3310,2337C3289,2380 3256,2430 3237,2448L3202,2482L3222,2528C3234,2553 3245,2608 3249,2650L3255,2725L3278,2678C3290,2652 3300,2622 3300,2613C3300,2603 3304,2589 3309,2581C3320,2564 3347,2600 3359,2650C3364,2669 3371,2699 3375,2715L3383,2745L3396,2705C3403,2683 3409,2649 3409,2629Z" style="fill:rgb(255,24,70);"/>
                <path d="M2833,3287C2885,3265 2936,3199 2959,3125C2997,3003 2980,2798 2919,2635C2864,2487 2807,2449 2731,2509L2707,2527L2730,2558C2779,2624 2765,2722 2699,2777C2668,2804 2663,2825 2682,2864C2697,2898 2726,2906 2751,2885C2773,2864 2810,2770 2810,2735C2810,2702 2824,2703 2839,2738C2863,2789 2864,2860 2841,2927C2816,3001 2824,3028 2876,3053C2895,3062 2910,3074 2910,3078C2910,3083 2886,3100 2858,3116C2811,3141 2795,3145 2718,3145C2620,3145 2618,3147 2649,3209C2670,3248 2705,3277 2749,3290C2787,3302 2797,3301 2833,3287Z" style="fill:rgb(255,177,50);"/>
                <path d="M633.202,3184.17C640.693,3169.62 641.351,3167.26 646.74,3147.66C665.616,3079 666.806,2975.13 629.813,2908.43C622.871,2895.91 610.34,2882.39 606.568,2892.83C601.248,2907.56 612.857,2931.36 613.754,2955.57C621.562,3005.03 619.922,3023.08 611.045,3026.04C605.045,3028.04 589.224,2993.73 564.529,2945.37C540.529,2898.37 496.028,2835.67 470.028,2805.67C415.028,2744.67 383.875,2741.5 457.16,2733.66C486.99,2730.47 477,2719 450,2695C424,2671 339.283,2665.41 287.283,2689.41C218.627,2710.84 179.883,2788.83 145.261,2956.21C144.469,3013.46 148.996,3025.37 184.996,3059.37C241.395,3096.01 306.194,3127.77 431.983,3181.59C557.983,3229.59 594.99,3233.02 633.202,3184.17Z"/>
                <path d="M875,3184C892,3177 930,3110 930,3086C930,3078 912,3055 891,3035C869,3015 842,2976 831,2949C819,2922 803,2900 795,2900C778,2900 746,2945 754,2958C759,2966 769,3080 770,3138C770,3174 831,3201 875,3184Z" style="fill:rgb(255,177,50);"/>
                <path d="M1666.28,3533.98C1723.28,3471.98 1754.9,3298.71 1728.9,3192.71C1688.16,3026.61 1576,2985.27 1346.16,2971.13C1346.16,2971.13 1266.25,2965.88 1228.5,3010C1205.47,3036.92 1170.2,3058.38 1150.43,3064.19C1130.26,3070.12 1099.76,3079.08 1086.76,3086.08C1049.37,3092.49 1004.69,3191.84 999.241,3285.84C995.211,3355.32 1008.63,3366.13 1027.07,3390.9C1063.28,3439.52 1296.86,3501.41 1492.64,3543.18C1602.94,3566.71 1639.28,3563.98 1666.28,3533.98Z"/>
                <path d="M760,3590C760,3532 778,3490 824,3440C853,3409 856,3400 852,3358C848,3315 845,3310 824,3310C810,3310 783,3303 763,3295C727,3280 725,3280 701,3305L675,3330L700,3330C714,3330 732,3335 740,3340C753,3348 751,3352 730,3367C637,3433 623,3533 697,3605C748,3654 760,3651 760,3590Z" style="fill:rgb(255,177,50);"/>
                <path d="M523,3483C532,3474 540,3462 540,3456C540,3449 549,3427 559,3407C580,3365 581,3366 516,3355C494,3351 433,3332 381,3313C269,3271 255,3274 256,3342C256,3394 284,3438 336,3471C403,3512 484,3517 523,3483Z" style="fill:rgb(255,177,50);"/>
                <path d="M2210,3508C2333,3462 2563,3363 2600,3340C2611,3333 2612,3328 2603,3319C2594,3310 2560,3321 2458,3368C2319,3431 2171,3489 2079,3516C2020,3533 1997,3547 2005,3561C2014,3574 2065,3561 2210,3508Z" style="fill:rgb(255,24,70);"/>
                <path d="M1690,3982C1769,3945 1868,3843 1913,3751C1970,3638 1957,3607 1883,3674C1802,3746 1764,3752 1600,3720C1471,3695 1318,3653 1106,3583C917,3521 901,3521 880,3586C853,3668 914,3757 1043,3820C1190,3892 1365,3920 1542,3902C1600,3896 1654,3888 1663,3884C1697,3871 1680,3908 1627,3965C1574,4020 1574,4021 1604,4015C1621,4011 1660,3997 1690,3982Z" style="fill:rgb(255,177,50);"/>
                <path d="M1316,4523C1267,4454 1237,4390 1252,4390C1259,4390 1290,4400 1320,4412C1394,4441 1527,4442 1585,4415L1625,4396L1595,4393C1349,4365 1138,4274 988,4132C956,4102 930,4082 930,4088C930,4110 999,4249 1038,4307C1091,4385 1203,4489 1281,4534C1316,4553 1346,4570 1347,4570C1349,4570 1335,4549 1316,4523Z" style="fill:rgb(255,24,70);"/>
                <path d="M2601,4526C2613,4498 2620,4462 2620,4413C2620,4349 2622,4341 2641,4335C2670,4325 2738,4262 2756,4228C2771,4199 2761,4189 2742,4213C2726,4231 2631,4275 2624,4267C2620,4264 2625,4243 2634,4220C2643,4198 2650,4166 2650,4149C2650,4120 2649,4120 2588,4185C2554,4222 2510,4260 2490,4270L2453,4289L2461,4342C2469,4390 2461,4468 2442,4520C2432,4548 2492,4486 2511,4448C2545,4382 2560,4402 2560,4511C2560,4590 2570,4594 2601,4526Z" style="fill:rgb(255,24,70);"/>
                <path d="M1596,3327C1577,3287 1536.37,3213.53 1499.37,3165.53C1463.37,3117.53 1420.51,3085.49 1430.71,3063.5C1428.69,3034.13 1511.04,3038.59 1569.53,3081.97C1618.95,3122.81 1646.8,3198.55 1657.52,3303.79C1674.52,3421.29 1629.4,3432.43 1596,3327Z" style="fill-rule:nonzero;"/>
                <path d="M989,2831C951,2793 948,2740 984,2740C997,2740 1019,2731 1033,2720L1058,2700L1078,2727C1106,2768 1113,2796 1099,2822C1074,2870 1032,2873 989,2831Z" style="fill-rule:nonzero;"/>
                <path d="M677,2712C646,2678 657,2627 701,2605C737,2586 740,2586 740,2609C740,2619 752,2644 766,2666C791,2702 791,2705 774,2717C748,2736 696,2733 677,2712Z" style="fill-rule:nonzero;"/>
                <path d="M1054,1685C906,1662 782,1617 681,1547C637,1517 637,1517 661,1508C713,1488 945,1528 1099,1582C1218,1624 1341,1681 1334,1691C1326,1704 1149,1700 1054,1685Z" style="fill-rule:nonzero;"/>
                <g transform="matrix(2.23707,0,0,-2.19727,-636.739,5381.01)">
                    <g transform="matrix(0.380388,0,0,0.380388,134.074,-1749.4)">
                        <path d="M2427.36,7000.53C2443.5,7123.8 2441.35,7261.8 2356.22,7361.42C2287.65,7441.65 2171.46,7457.57 2073.91,7472.63C2011.57,7482.26 1946.03,7488.49 1885.75,7464.76C1842.83,7447.87 1819.83,7404.65 1780.45,7382.55C1737.21,7358.27 1682.98,7358.7 1644.88,7324.29C1631.22,7311.94 1618.5,7287.28 1612.08,7270.52C1589.78,7212.24 1582.11,7187.93 1573.94,7125.93C1568.92,7087.86 1567.08,7048.87 1582.44,7012.88C1609.87,6948.57 1686.56,6927.27 1746.78,6907.36C1777.48,6897.22 1808.04,6886.6 1838.98,6877.2C1869.9,6867.81 1901.08,6859.23 1932.33,6850.98C2072.73,6813.95 2076.78,6813.45 2219.41,6786.29C2258.38,6778.87 2306.55,6771.82 2340.79,6797.82C2382.2,6829.26 2393.99,6883.09 2409.01,6929.3C2415.57,6949.49 2424.58,6979.35 2427.36,7000.53ZM2197.46,7377.07C2100.06,7416.76 2056.66,7389.73 2079.12,7344.49C2087.98,7326.65 2214.81,7200.09 2282.39,7025.5C2286.7,7014.35 2306.57,6958.41 2333.69,6972.75C2371.54,6992.76 2329.82,7190.48 2300.12,7267.1C2293.3,7284.72 2283.66,7306.26 2270.36,7321.94C2250.94,7344.85 2224.03,7366.24 2197.46,7377.07Z" style="fill:rgb(255,24,70);stroke:rgb(255,24,70);stroke-width:6px;"/>
                    </g>
                    <path d="M784.486,959.888C783.588,933.163 802.755,911.023 826.844,906.321C842.69,903.228 859.359,907.121 860.622,927.011C860.975,932.571 859.983,938.423 858.824,943.872C857.717,949.068 856.076,954.161 854.119,959.1C850.062,969.339 846.522,979.313 842.203,989.444C836.803,1002.11 822.429,1026.16 804.337,1014.84C802.406,1013.63 801.187,1011.44 800.24,1009.37C796.15,1000.42 792.732,991.184 789.305,981.966C786.717,975.005 784.737,967.359 784.486,959.888Z" style="fill:rgb(247,247,247);"/>
                </g>
                <g transform="matrix(2.2565,0,0,-2.21636,-641.459,5401.87)">
                    <path d="M560.516,1080.05C560.383,1077.88 560.086,1075.63 559.156,1073.66C557.849,1070.89 556.013,1068.79 553.244,1070.54C547.881,1073.93 543.413,1086.47 542.299,1088.76C529.8,1114.41 517.408,1136.16 499.849,1159.57C492.994,1168.71 485.288,1177.19 477.659,1185.69C473.558,1190.26 468.772,1194.18 464.682,1198.76C463.873,1199.67 466.214,1200.85 467.369,1201.22C470.315,1202.17 473.309,1202.99 476.332,1203.66C481.513,1204.8 486.943,1204.94 491.965,1206.65C493.639,1207.23 491.719,1210.41 490.607,1211.79C488.706,1214.14 486.728,1216.48 484.388,1218.39C472.546,1228.09 455.359,1229.35 440.847,1228.55C414.392,1227.11 391.698,1215.72 378.703,1192.72C371.384,1179.76 365.361,1162.84 361.24,1148.78C358.84,1140.6 356.867,1132.29 355.099,1123.94C350.722,1103.28 345.047,1084.74 359.137,1067.09C361.378,1064.28 363.823,1061.61 366.486,1059.19C369.73,1056.25 373.083,1053.37 376.806,1051.06C385.691,1045.56 394.862,1040.51 404.207,1035.84C419.271,1028.3 434.617,1021.33 449.991,1014.45C472.105,1004.55 487.48,998.582 510.499,991.396C517.225,989.296 527.998,987.004 535.25,986.926C568.196,986.572 572.421,1024.18 574.226,1049.36C574.68,1055.69 574.929,1062.05 574.753,1068.39C574.572,1074.93 574.1,1081.49 573.155,1087.97C571.83,1097.06 568.454,1109.43 564.746,1118.03C563.334,1121.31 561.763,1124.58 559.585,1127.4C558.347,1129 554.944,1133.04 554.713,1131.03C553.925,1124.16 556.705,1117.35 557.644,1110.5C558.626,1103.34 561,1087.96 560.516,1080.05Z" style="fill:rgb(255,24,70);stroke:rgb(255,24,70);stroke-width:4.5px;"/>
                    <path d="M447.371,1104.54C452.599,1082.65 452.61,1046.72 431.225,1054.89C394.472,1068.93 384.604,1097.42 389.64,1127.45C392.05,1141.82 403.276,1178.61 414.158,1169.38C435.797,1151.04 445.737,1111.39 447.371,1104.54Z" style="fill:rgb(247,247,247);"/>
                </g>
            </g>
            <g>
                <g transform="matrix(1,0,0,1,-2987.64,417.705)">
                    <path d="M306.54,174.81L249.23,174.81L249.23,233.53L213.7,233.53L213.7,86.12L312.31,86.12L312.31,113.55L249.23,113.55L249.23,147.47L306.54,147.47L306.54,174.81Z" style="fill:white;fill-rule:nonzero;"/>
                </g>
                <g transform="matrix(1,0,0,1,-2987.64,417.705)">
                    <path d="M413.33,171L357.44,171L357.44,206.23L423.44,206.23L423.44,233.57L321.91,233.57L321.91,86.12L423.65,86.12L423.65,113.55L357.44,113.55L357.44,144.64L413.33,144.64L413.33,171Z" style="fill:white;fill-rule:nonzero;"/>
                </g>
                <g transform="matrix(1,0,0,1,-2987.64,417.705)">
                    <path d="M553.43,215.3C547.963,221.38 539.963,226.273 529.43,229.98C518.291,233.791 506.583,235.675 494.81,235.55C475.477,235.55 460.053,229.643 448.54,217.83C437.027,206.017 430.847,189.583 430,168.53L429.9,155.77C429.9,141.257 432.467,128.59 437.6,117.77C442.281,107.434 449.943,98.727 459.6,92.77C469.2,86.923 480.26,84 492.78,84C511.14,84 525.4,88.203 535.56,96.61C545.72,105.017 551.64,117.553 553.32,134.22L519.1,134.22C517.887,125.98 515.257,120.107 511.21,116.6C507.163,113.093 501.427,111.337 494,111.33C485.087,111.33 478.2,115.11 473.34,122.67C468.48,130.23 466.033,141.027 466,155.06L466,164C466,178.72 468.513,189.773 473.54,197.16C478.567,204.547 486.483,208.243 497.29,208.25C506.53,208.25 513.413,206.19 517.94,202.07L517.94,179.16L493.24,179.16L493.24,154.76L553.48,154.76L553.43,215.3Z" style="fill:white;fill-rule:nonzero;"/>
                </g>
            </g>
        </g>
    </g>
</svg>
