<svg xmlns="http://www.w3.org/2000/svg" xmlns:xlink="http://www.w3.org/1999/xlink" xmlns:serif="http://www.serif.com/" width="100%" height="100%" viewBox="0 0 60 20" xml:space="preserve" style="fill-rule:evenodd;clip-rule:evenodd;stroke-linejoin:round;stroke-miterlimit:2;">    <g transform="matrix(1,0,0,1,-6419,-1688)">        <g id="FTM_logo" transform="matrix(0.740092,0,0,0.617612,7791.67,2719.06)">            <g transform="matrix(1.28676,2.31828e-16,-2.92174e-16,1.54194,-1867.01,-1677.18)">                <path d="M17.2,12.9L20.8,10.8L20.8,15L17.2,12.9ZM20.8,21.9L16,24.7L11.2,21.9L11.2,17L16,19.8L20.8,17L20.8,21.9ZM11.2,10.8L14.8,12.9L11.2,15L11.2,10.8ZM16.6,13.9L20.2,16L16.6,18.1L16.6,13.9ZM15.4,18.1L11.8,16L15.4,13.9L15.4,18.1ZM20.2,9.8L16,12.2L11.8,9.8L16,7.3L20.2,9.8ZM10,9.4L10,22.5L16,25.9L22,22.5L22,9.4L16,6L10,9.4Z" style="fill:rgb(115,119,126);"></path>            </g>            <g transform="matrix(1.57084,0,0,1.88236,-9130.7,-3950.15)">                <path d="M4650.37,1217.57C4650.04,1217.43 4649.78,1217.36 4649.59,1217.36C4649.41,1217.36 4649.29,1217.42 4649.23,1217.55C4649.18,1217.67 4649.15,1217.87 4649.15,1218.16L4649.15,1218.7L4650.3,1218.7L4650.3,1219.45L4649.15,1219.45L4649.15,1224.42L4648.29,1224.42L4648.29,1219.45L4647.58,1219.45L4647.58,1218.7L4648.29,1218.7L4648.29,1218.05C4648.29,1217.53 4648.38,1217.15 4648.57,1216.91C4648.76,1216.66 4649.06,1216.54 4649.47,1216.54C4649.69,1216.54 4649.99,1216.6 4650.37,1216.7L4650.37,1217.57Z" style="fill:rgb(115,119,126);fill-rule:nonzero;"></path>                <path d="M4656.82,1224.42L4655.98,1224.42L4655.98,1223.58C4655.37,1224.27 4654.66,1224.61 4653.86,1224.61C4653.06,1224.61 4652.38,1224.31 4651.81,1223.71C4651.24,1223.11 4650.96,1222.4 4650.96,1221.57C4650.96,1220.74 4651.24,1220.03 4651.82,1219.44C4652.39,1218.85 4653.09,1218.55 4653.91,1218.55C4654.73,1218.55 4655.43,1218.89 4655.98,1219.57L4655.98,1218.7L4656.82,1218.7L4656.82,1224.42ZM4653.93,1223.8C4654.5,1223.8 4654.99,1223.59 4655.4,1223.17C4655.82,1222.75 4656.03,1222.23 4656.03,1221.6C4656.03,1220.97 4655.82,1220.45 4655.41,1220.03C4655.01,1219.6 4654.51,1219.39 4653.92,1219.39C4653.33,1219.39 4652.83,1219.61 4652.43,1220.05C4652.02,1220.48 4651.82,1221 4651.82,1221.6C4651.82,1222.19 4652.02,1222.71 4652.44,1223.14C4652.85,1223.58 4653.35,1223.8 4653.93,1223.8Z" style="fill:rgb(115,119,126);fill-rule:nonzero;"></path>                <path d="M4663.21,1224.42L4662.36,1224.42L4662.36,1221.69C4662.36,1221.06 4662.34,1220.63 4662.28,1220.4C4662.22,1220.17 4662.13,1219.98 4662.02,1219.83C4661.9,1219.67 4661.76,1219.55 4661.58,1219.47C4661.41,1219.4 4661.19,1219.36 4660.94,1219.36C4660.69,1219.36 4660.44,1219.42 4660.2,1219.55C4659.96,1219.67 4659.75,1219.85 4659.58,1220.07C4659.41,1220.3 4659.29,1220.53 4659.23,1220.79C4659.16,1221.04 4659.13,1221.54 4659.13,1222.3L4659.13,1224.42L4658.27,1224.42L4658.27,1218.7L4659.13,1218.7L4659.13,1219.56C4659.69,1218.89 4660.35,1218.55 4661.11,1218.55C4661.52,1218.55 4661.89,1218.66 4662.22,1218.87C4662.55,1219.08 4662.8,1219.38 4662.96,1219.75C4663.13,1220.13 4663.21,1220.7 4663.21,1221.48L4663.21,1224.42Z" style="fill:rgb(115,119,126);fill-rule:nonzero;"></path>                <path d="M4667.17,1219.45L4666.06,1219.45L4666.06,1223.46C4666.06,1223.61 4666.08,1223.7 4666.12,1223.73C4666.16,1223.76 4666.26,1223.78 4666.43,1223.78L4666.92,1223.78L4666.92,1224.52C4666.59,1224.58 4666.34,1224.61 4666.17,1224.61C4665.84,1224.61 4665.59,1224.53 4665.44,1224.36C4665.28,1224.2 4665.2,1223.94 4665.2,1223.58L4665.2,1219.45L4664.23,1219.45L4664.23,1218.7L4665.2,1218.7L4665.2,1216.54L4666.06,1216.54L4666.06,1218.7L4667.17,1218.7L4667.17,1219.45Z" style="fill:rgb(115,119,126);fill-rule:nonzero;"></path>                <path d="M4670.76,1218.55C4671.57,1218.55 4672.27,1218.85 4672.83,1219.44C4673.4,1220.04 4673.69,1220.75 4673.69,1221.58C4673.69,1222.42 4673.41,1223.13 4672.85,1223.72C4672.28,1224.31 4671.59,1224.61 4670.76,1224.61C4669.93,1224.61 4669.24,1224.31 4668.67,1223.72C4668.11,1223.13 4667.82,1222.42 4667.82,1221.58C4667.82,1220.75 4668.11,1220.04 4668.68,1219.44C4669.25,1218.85 4669.94,1218.55 4670.76,1218.55ZM4670.76,1223.78C4671.33,1223.78 4671.82,1223.57 4672.22,1223.14C4672.63,1222.72 4672.83,1222.21 4672.83,1221.61C4672.83,1221.01 4672.62,1220.49 4672.21,1220.06C4671.8,1219.62 4671.32,1219.4 4670.76,1219.4C4670.19,1219.4 4669.71,1219.62 4669.3,1220.06C4668.9,1220.49 4668.69,1221.01 4668.69,1221.62C4668.69,1222.22 4668.89,1222.73 4669.28,1223.15C4669.68,1223.57 4670.17,1223.78 4670.76,1223.78Z" style="fill:rgb(115,119,126);fill-rule:nonzero;"></path>                <path d="M4683.21,1224.42L4682.34,1224.42L4682.34,1221.3C4682.34,1220.8 4682.31,1220.44 4682.26,1220.21C4682.2,1219.98 4682.07,1219.78 4681.87,1219.63C4681.68,1219.47 4681.42,1219.39 4681.1,1219.39C4680.78,1219.39 4680.48,1219.5 4680.19,1219.7C4679.91,1219.91 4679.71,1220.2 4679.6,1220.56C4679.49,1220.92 4679.44,1221.45 4679.44,1222.16L4679.44,1224.42L4678.6,1224.42L4678.6,1221.49C4678.6,1220.92 4678.57,1220.5 4678.51,1220.25C4678.45,1220 4678.32,1219.79 4678.12,1219.63C4677.92,1219.47 4677.67,1219.39 4677.37,1219.39C4677.07,1219.39 4676.78,1219.49 4676.51,1219.68C4676.23,1219.87 4676.03,1220.12 4675.9,1220.43C4675.77,1220.75 4675.7,1221.26 4675.7,1221.98L4675.7,1224.42L4674.86,1224.42L4674.86,1218.7L4675.7,1218.7L4675.7,1219.51C4676.19,1218.87 4676.79,1218.55 4677.51,1218.55C4677.91,1218.55 4678.26,1218.66 4678.58,1218.87C4678.9,1219.08 4679.13,1219.39 4679.27,1219.78C4679.51,1219.38 4679.8,1219.08 4680.15,1218.87C4680.5,1218.65 4680.88,1218.55 4681.27,1218.55C4681.81,1218.55 4682.26,1218.74 4682.64,1219.13C4683.02,1219.51 4683.21,1220.24 4683.21,1221.3L4683.21,1224.42Z" style="fill:rgb(115,119,126);fill-rule:nonzero;"></path>            </g>        </g>    </g></svg>