<svg xmlns="http://www.w3.org/2000/svg" xmlns:xlink="http://www.w3.org/1999/xlink" xmlns:serif="http://www.serif.com/" width="100%" height="100%" viewBox="0 0 81 20" xml:space="preserve" style="fill-rule:evenodd;clip-rule:evenodd;stroke-linejoin:round;stroke-miterlimit:2;">    <g transform="matrix(1,0,0,1,-6351,-1730)">        <g id="MATIC_logo" transform="matrix(0.672216,0,0,0.560969,7637.48,2630.99)">            <g transform="matrix(1.19198,0,0,1.42837,-7373.71,-3400.61)">                <path d="M4618.23,1265.03L4618.23,1266.22L4618.28,1266.22C4618.39,1266.06 4618.52,1265.89 4618.69,1265.72C4618.86,1265.54 4619.07,1265.39 4619.32,1265.25C4619.56,1265.12 4619.84,1265 4620.15,1264.91C4620.46,1264.83 4620.8,1264.78 4621.19,1264.78C4621.78,1264.78 4622.33,1264.9 4622.84,1265.13C4623.34,1265.36 4623.77,1265.68 4624.13,1266.08C4624.49,1266.48 4624.78,1266.96 4624.97,1267.5C4625.17,1268.05 4625.27,1268.64 4625.27,1269.26C4625.27,1269.89 4625.18,1270.48 4624.98,1271.03C4624.79,1271.59 4624.52,1272.07 4624.16,1272.48C4623.8,1272.88 4623.37,1273.21 4622.86,1273.45C4622.35,1273.7 4621.78,1273.82 4621.14,1273.82C4620.54,1273.82 4619.99,1273.69 4619.5,1273.44C4619,1273.19 4618.62,1272.86 4618.35,1272.43L4618.32,1272.43L4618.32,1277.84L4616.21,1277.84L4616.21,1265.03L4618.23,1265.03ZM4623.13,1269.26C4623.13,1268.93 4623.08,1268.6 4622.98,1268.28C4622.89,1267.95 4622.74,1267.66 4622.54,1267.4C4622.34,1267.14 4622.09,1266.92 4621.78,1266.77C4621.48,1266.61 4621.12,1266.53 4620.72,1266.53C4620.33,1266.53 4619.99,1266.61 4619.68,1266.77C4619.38,1266.94 4619.12,1267.15 4618.9,1267.41C4618.69,1267.67 4618.52,1267.97 4618.41,1268.3C4618.3,1268.64 4618.25,1268.97 4618.25,1269.3C4618.25,1269.63 4618.3,1269.96 4618.41,1270.29C4618.52,1270.61 4618.69,1270.91 4618.9,1271.17C4619.12,1271.43 4619.38,1271.64 4619.68,1271.8C4619.99,1271.96 4620.33,1272.04 4620.72,1272.04C4621.12,1272.04 4621.48,1271.96 4621.78,1271.79C4622.09,1271.62 4622.34,1271.41 4622.54,1271.15C4622.74,1270.89 4622.89,1270.59 4622.98,1270.26C4623.08,1269.93 4623.13,1269.6 4623.13,1269.26Z" style="fill:rgb(115,119,126);fill-rule:nonzero;"></path>                <path d="M4626.81,1269.26C4626.81,1268.59 4626.93,1267.97 4627.17,1267.42C4627.41,1266.87 4627.73,1266.4 4628.14,1266.01C4628.55,1265.62 4629.04,1265.32 4629.6,1265.1C4630.16,1264.89 4630.75,1264.78 4631.39,1264.78C4632.02,1264.78 4632.61,1264.89 4633.17,1265.1C4633.73,1265.32 4634.22,1265.62 4634.63,1266.01C4635.03,1266.4 4635.36,1266.87 4635.6,1267.42C4635.84,1267.97 4635.96,1268.59 4635.96,1269.26C4635.96,1269.94 4635.84,1270.56 4635.6,1271.11C4635.36,1271.67 4635.03,1272.15 4634.63,1272.55C4634.22,1272.94 4633.73,1273.25 4633.17,1273.48C4632.61,1273.7 4632.02,1273.82 4631.39,1273.82C4630.75,1273.82 4630.16,1273.7 4629.6,1273.48C4629.04,1273.25 4628.55,1272.94 4628.14,1272.55C4627.73,1272.15 4627.41,1271.67 4627.17,1271.11C4626.93,1270.56 4626.81,1269.94 4626.81,1269.26ZM4628.95,1269.26C4628.95,1269.6 4629,1269.93 4629.1,1270.26C4629.2,1270.59 4629.35,1270.89 4629.55,1271.15C4629.74,1271.41 4629.99,1271.62 4630.3,1271.79C4630.6,1271.96 4630.96,1272.04 4631.39,1272.04C4631.81,1272.04 4632.17,1271.96 4632.47,1271.79C4632.78,1271.62 4633.03,1271.41 4633.22,1271.15C4633.42,1270.89 4633.57,1270.59 4633.67,1270.26C4633.77,1269.93 4633.82,1269.6 4633.82,1269.26C4633.82,1268.93 4633.77,1268.6 4633.67,1268.28C4633.57,1267.95 4633.42,1267.66 4633.22,1267.4C4633.03,1267.14 4632.78,1266.92 4632.47,1266.77C4632.17,1266.61 4631.81,1266.53 4631.39,1266.53C4630.96,1266.53 4630.6,1266.61 4630.3,1266.77C4629.99,1266.92 4629.74,1267.14 4629.55,1267.4C4629.35,1267.66 4629.2,1267.95 4629.1,1268.28C4629,1268.6 4628.95,1268.93 4628.95,1269.26Z" style="fill:rgb(115,119,126);fill-rule:nonzero;"></path>                <rect x="4638.02" y="1260.12" width="2.102" height="13.447" style="fill:rgb(115,119,126);fill-rule:nonzero;"></rect>                <path d="M4641.42,1265.03L4643.75,1265.03L4646.1,1271.24L4646.14,1271.24L4648.22,1265.03L4650.41,1265.03L4646.43,1275.4C4646.28,1275.79 4646.12,1276.14 4645.94,1276.44C4645.77,1276.74 4645.56,1277 4645.31,1277.21C4645.07,1277.41 4644.78,1277.57 4644.44,1277.68C4644.11,1277.78 4643.71,1277.84 4643.24,1277.84C4643.07,1277.84 4642.89,1277.83 4642.71,1277.81C4642.53,1277.79 4642.35,1277.76 4642.16,1277.71L4642.33,1275.86C4642.47,1275.91 4642.61,1275.94 4642.74,1275.96C4642.88,1275.98 4643.01,1275.99 4643.12,1275.99C4643.34,1275.99 4643.53,1275.96 4643.68,1275.91C4643.83,1275.85 4643.96,1275.77 4644.07,1275.66C4644.17,1275.55 4644.27,1275.41 4644.35,1275.24C4644.43,1275.07 4644.52,1274.88 4644.61,1274.65L4645.03,1273.57L4641.42,1265.03Z" style="fill:rgb(115,119,126);fill-rule:nonzero;"></path>                <path d="M4660.22,1265.03L4660.22,1272.8C4660.22,1273.57 4660.13,1274.27 4659.94,1274.89C4659.75,1275.52 4659.46,1276.04 4659.07,1276.48C4658.68,1276.91 4658.19,1277.24 4657.59,1277.48C4657,1277.72 4656.29,1277.84 4655.47,1277.84C4655.13,1277.84 4654.78,1277.81 4654.4,1277.75C4654.02,1277.69 4653.64,1277.6 4653.27,1277.48C4652.91,1277.36 4652.55,1277.21 4652.21,1277.04C4651.88,1276.86 4651.57,1276.66 4651.3,1276.43L4652.51,1274.78C4652.92,1275.17 4653.38,1275.47 4653.9,1275.68C4654.41,1275.88 4654.93,1275.99 4655.45,1275.99C4655.96,1275.99 4656.38,1275.91 4656.73,1275.77C4657.07,1275.62 4657.34,1275.41 4657.55,1275.15C4657.75,1274.89 4657.9,1274.58 4657.99,1274.23C4658.07,1273.87 4658.12,1273.48 4658.12,1273.05L4658.12,1272.43L4658.08,1272.43C4657.78,1272.85 4657.39,1273.16 4656.92,1273.38C4656.44,1273.6 4655.92,1273.71 4655.33,1273.71C4654.7,1273.71 4654.13,1273.59 4653.61,1273.36C4653.1,1273.12 4652.67,1272.8 4652.31,1272.39C4651.95,1271.99 4651.68,1271.52 4651.48,1270.98C4651.28,1270.44 4651.18,1269.87 4651.18,1269.26C4651.18,1268.65 4651.28,1268.07 4651.47,1267.52C4651.66,1266.98 4651.94,1266.5 4652.29,1266.1C4652.65,1265.69 4653.08,1265.38 4653.59,1265.14C4654.1,1264.9 4654.67,1264.78 4655.3,1264.78C4655.89,1264.78 4656.45,1264.91 4656.96,1265.15C4657.48,1265.4 4657.88,1265.79 4658.19,1266.31L4658.22,1266.31L4658.22,1265.03L4660.22,1265.03ZM4655.73,1266.53C4655.35,1266.53 4655.01,1266.6 4654.71,1266.74C4654.41,1266.88 4654.16,1267.07 4653.96,1267.32C4653.75,1267.56 4653.6,1267.85 4653.48,1268.18C4653.37,1268.51 4653.32,1268.87 4653.32,1269.25C4653.32,1269.59 4653.37,1269.92 4653.48,1270.24C4653.6,1270.56 4653.75,1270.85 4653.96,1271.11C4654.16,1271.36 4654.41,1271.56 4654.71,1271.72C4655.01,1271.87 4655.34,1271.95 4655.72,1271.95C4656.1,1271.95 4656.45,1271.88 4656.76,1271.73C4657.07,1271.58 4657.33,1271.38 4657.55,1271.13C4657.76,1270.88 4657.93,1270.6 4658.05,1270.27C4658.16,1269.94 4658.22,1269.6 4658.22,1269.25C4658.22,1268.88 4658.16,1268.53 4658.05,1268.2C4657.93,1267.87 4657.76,1267.57 4657.55,1267.33C4657.33,1267.08 4657.07,1266.88 4656.77,1266.74C4656.47,1266.6 4656.12,1266.53 4655.73,1266.53Z" style="fill:rgb(115,119,126);fill-rule:nonzero;"></path>                <path d="M4662.25,1269.26C4662.25,1268.59 4662.37,1267.97 4662.61,1267.42C4662.85,1266.87 4663.18,1266.4 4663.58,1266.01C4663.99,1265.62 4664.48,1265.32 4665.04,1265.1C4665.6,1264.89 4666.19,1264.78 4666.82,1264.78C4667.45,1264.78 4668.05,1264.89 4668.61,1265.1C4669.17,1265.32 4669.66,1265.62 4670.07,1266.01C4670.47,1266.4 4670.8,1266.87 4671.04,1267.42C4671.28,1267.97 4671.4,1268.59 4671.4,1269.26C4671.4,1269.94 4671.28,1270.56 4671.04,1271.11C4670.8,1271.67 4670.47,1272.15 4670.07,1272.55C4669.66,1272.94 4669.17,1273.25 4668.61,1273.48C4668.05,1273.7 4667.45,1273.82 4666.82,1273.82C4666.19,1273.82 4665.6,1273.7 4665.04,1273.48C4664.48,1273.25 4663.99,1272.94 4663.58,1272.55C4663.18,1272.15 4662.85,1271.67 4662.61,1271.11C4662.37,1270.56 4662.25,1269.94 4662.25,1269.26ZM4664.39,1269.26C4664.39,1269.6 4664.44,1269.93 4664.54,1270.26C4664.64,1270.59 4664.79,1270.89 4664.98,1271.15C4665.18,1271.41 4665.43,1271.62 4665.74,1271.79C4666.04,1271.96 4666.4,1272.04 4666.82,1272.04C4667.24,1272.04 4667.61,1271.96 4667.91,1271.79C4668.21,1271.62 4668.47,1271.41 4668.66,1271.15C4668.86,1270.89 4669.01,1270.59 4669.11,1270.26C4669.21,1269.93 4669.26,1269.6 4669.26,1269.26C4669.26,1268.93 4669.21,1268.6 4669.11,1268.28C4669.01,1267.95 4668.86,1267.66 4668.66,1267.4C4668.47,1267.14 4668.21,1266.92 4667.91,1266.77C4667.61,1266.61 4667.24,1266.53 4666.82,1266.53C4666.4,1266.53 4666.04,1266.61 4665.74,1266.77C4665.43,1266.92 4665.18,1267.14 4664.98,1267.4C4664.79,1267.66 4664.64,1267.95 4664.54,1268.28C4664.44,1268.6 4664.39,1268.93 4664.39,1269.26Z" style="fill:rgb(115,119,126);fill-rule:nonzero;"></path>                <path d="M4673.43,1265.03L4675.43,1265.03L4675.43,1266.4L4675.46,1266.4C4675.65,1265.97 4675.97,1265.6 4676.43,1265.27C4676.89,1264.94 4677.44,1264.78 4678.07,1264.78C4678.62,1264.78 4679.09,1264.88 4679.48,1265.08C4679.87,1265.27 4680.19,1265.53 4680.44,1265.85C4680.7,1266.17 4680.88,1266.54 4681,1266.95C4681.11,1267.37 4681.17,1267.79 4681.17,1268.23L4681.17,1273.57L4679.07,1273.57L4679.07,1268.84C4679.07,1268.59 4679.05,1268.33 4679.02,1268.06C4678.98,1267.78 4678.91,1267.54 4678.79,1267.32C4678.67,1267.1 4678.51,1266.92 4678.31,1266.77C4678.1,1266.63 4677.83,1266.56 4677.49,1266.56C4677.15,1266.56 4676.86,1266.63 4676.62,1266.77C4676.37,1266.9 4676.17,1267.08 4676.01,1267.29C4675.86,1267.5 4675.73,1267.75 4675.65,1268.03C4675.57,1268.31 4675.53,1268.59 4675.53,1268.87L4675.53,1273.57L4673.43,1273.57L4673.43,1265.03Z" style="fill:rgb(115,119,126);fill-rule:nonzero;"></path>            </g>            <g transform="matrix(0.836561,3.68997e-17,-7.18504e-17,1.00246,-1913.7,-1604.83)">                <path d="M29,10.2C28.3,9.8 27.4,9.8 26.6,10.2L21,13.5L17.2,15.6L11.7,18.9C11,19.3 10.1,19.3 9.3,18.9L5,16.3C4.3,15.9 3.8,15.1 3.8,14.2L3.8,9.2C3.8,8.4 4.2,7.6 5,7.1L9.3,4.6C10,4.2 10.9,4.2 11.7,4.6L16,7.2C16.7,7.6 17.2,8.4 17.2,9.3L17.2,12.6L21,10.4L21,7C21,6.2 20.6,5.4 19.8,4.9L11.8,0.2C11.1,-0.2 10.2,-0.2 9.4,0.2L1.2,5C0.4,5.4 0,6.2 0,7L0,16.4C0,17.2 0.4,18 1.2,18.5L9.3,23.2C10,23.6 10.9,23.6 11.7,23.2L17.2,20L21,17.8L26.5,14.6C27.2,14.2 28.1,14.2 28.9,14.6L33.2,17.1C33.9,17.5 34.4,18.3 34.4,19.2L34.4,24.2C34.4,25 34,25.8 33.2,26.3L29,28.8C28.3,29.2 27.4,29.2 26.6,28.8L22.3,26.3C21.6,25.9 21.1,25.1 21.1,24.2L21.1,21L17.3,23.2L17.3,26.5C17.3,27.3 17.7,28.1 18.5,28.6L26.6,33.3C27.3,33.7 28.2,33.7 29,33.3L37.1,28.6C37.8,28.2 38.3,27.4 38.3,26.5L38.3,17C38.3,16.2 37.9,15.4 37.1,14.9L29,10.2Z" style="fill:rgb(115,119,126);fill-rule:nonzero;"></path>            </g>        </g>    </g></svg>